<svg id="Layer_1" data-name="Layer 1" xmlns="http://www.w3.org/2000/svg" viewBox="0 0 354 251"><defs><style>.cls-1{fill:#992e43;}.cls-2{fill:#323641;}</style></defs><rect class="cls-1" width="354" height="251"/><path class="cls-2" d="M410.43,473.23V579.77c0,2.76,3.49,5,7.8,5h33.89c4.31,0,7.79-2.24,7.79-5V505c0-2.77,3.49-5,7.8-5H480.1a9.21,9.21,0,0,1,6.79,2.55l69.75,79.66c1.38,1.58,4,2.55,6.79,2.55h39c6.15,0,9.87-4.36,6.57-7.69L503.44,470.54a9.44,9.44,0,0,0-6.57-2.31H418.23C413.92,468.23,410.43,470.47,410.43,473.23Z" transform="translate(-333.32 -401)"/></svg>